<svg xmlns="http://www.w3.org/2000/svg" xmlns:xlink="http://www.w3.org/1999/xlink" width="87" zoomAndPan="magnify" viewBox="0 0 65.25 65.25" height="87" preserveAspectRatio="xMidYMid meet" version="1.2"><defs><clipPath id="51e16516af"><path d="M 0 0 L 63.769531 0 L 63.769531 63.769531 L 0 63.769531 Z M 0 0 "/></clipPath><clipPath id="504e3f37fc"><path d="M 31.886719 0 C 14.277344 0 0 14.277344 0 31.886719 C 0 49.496094 14.277344 63.769531 31.886719 63.769531 C 49.496094 63.769531 63.769531 49.496094 63.769531 31.886719 C 63.769531 14.277344 49.496094 0 31.886719 0 Z M 31.886719 0 "/></clipPath></defs><g id="2a97a70725"><g clip-rule="nonzero" clip-path="url(#51e16516af)"><g clip-rule="nonzero" clip-path="url(#504e3f37fc)"><path style=" stroke:none;fill-rule:nonzero;fill:#fdfdfd;fill-opacity:1;" d="M 0 0 L 63.769531 0 L 63.769531 63.769531 L 0 63.769531 Z M 0 0 "/></g></g><path style=" stroke:none;fill-rule:nonzero;fill:#ed7dae;fill-opacity:1;" d="M 30.863281 57.445312 C 24.792969 56.4375 18.269531 51.960938 14.960938 46.535156 C 12.25 42.085938 10.898438 36.355469 11.414062 31.492188 L 11.683594 28.945312 L 11.960938 31.855469 C 13.179688 44.675781 24.113281 53.785156 35.765625 51.683594 C 40.339844 50.859375 46.042969 47.511719 48.316406 44.316406 C 49.089844 43.234375 49.035156 43.253906 47.199219 44.703125 C 43.367188 47.734375 37.621094 49.832031 33.125 49.847656 C 26.519531 49.871094 20.050781 46.203125 16.191406 40.246094 C 13.992188 36.851562 12.871094 32.941406 12.851562 28.582031 C 12.824219 22.609375 14.679688 18.324219 19.285156 13.738281 C 20.859375 12.171875 21.53125 11.679688 22.296875 11.046875 C 21.820312 11.96875 21.605469 12.484375 21.113281 13.5625 C 19.976562 16.050781 19.75 19.890625 20.078125 22.539062 C 20.671875 27.339844 23.15625 32.871094 26.273438 36.339844 C 27.191406 37.363281 29.160156 39.011719 30.648438 40.007812 C 32.132812 41 33.105469 41.566406 33.757812 42.054688 C 32.578125 42.027344 28.839844 41.113281 27.222656 40.164062 C 22.507812 37.398438 20.152344 33.613281 18.433594 26.035156 L 17.773438 23.128906 L 17.746094 25.46875 C 17.65625 32.199219 21.421875 38.828125 26.988281 41.734375 C 31.59375 44.140625 36.273438 44.21875 41.789062 41.988281 C 45.222656 40.597656 47.789062 40.304688 49.386719 41.128906 C 50.621094 41.765625 52.625 43.726562 52.625 44.300781 C 52.625 44.566406 52.027344 45.964844 51.300781 47.410156 C 48.777344 52.421875 43.902344 56.140625 38.363281 57.28125 C 35.308594 57.90625 33.828125 57.941406 30.863281 57.449219 Z M 34.796875 40.628906 C 31.394531 38.828125 29.695312 35.230469 29.683594 29.785156 C 29.667969 25.148438 30.546875 22.171875 32.988281 18.578125 C 35.539062 14.820312 39.316406 12.394531 42.601562 12.402344 C 44.835938 12.40625 47.59375 13.609375 49.3125 15.324219 C 50.496094 16.511719 50.523438 16.605469 50.34375 18.925781 C 49.980469 23.585938 47.386719 30.132812 44.085938 34.730469 C 42.785156 36.734375 42.851562 37.414062 40.78125 38.070312 C 39.417969 38.640625 37.128906 38.324219 35.132812 37.289062 C 33.5 36.445312 33.886719 36.984375 35.65625 38.023438 C 36.699219 38.632812 38.195312 39.070312 40.042969 39.304688 C 43.949219 39.800781 44.429688 40.148438 42.242188 40.894531 C 39.660156 41.773438 36.769531 41.671875 34.796875 40.628906 Z M 40.984375 35.179688 C 41.085938 34.566406 41.472656 34.066406 42.066406 33.28125 C 42.660156 32.496094 43.152344 31.652344 43.15625 31.410156 C 43.164062 31.164062 43.648438 30.714844 44.234375 30.410156 C 45.21875 29.902344 45.273438 29.765625 44.960938 28.675781 C 44.441406 26.855469 44.554688 25.28125 45.324219 23.773438 C 45.710938 23.019531 46.054688 21.90625 46.089844 21.308594 C 46.210938 19.265625 46.078125 17.855469 45.769531 17.855469 C 45.121094 17.855469 40.324219 21.746094 37.621094 24.464844 C 34.824219 27.277344 32.257812 30.785156 32.257812 31.804688 C 32.257812 32.980469 36.128906 35.820312 39.464844 36.367188 C 40.507812 36.539062 40.882812 35.816406 40.988281 35.179688 Z M 27.480469 35.441406 C 23.753906 31.1875 21.917969 26.257812 21.949219 20.582031 C 21.976562 14.550781 23.851562 10.753906 27.613281 9.113281 C 29.886719 8.117188 34.796875 7.738281 37.601562 8.339844 C 40.125 8.882812 42.289062 9.996094 43.53125 10.628906 C 41.96875 10.652344 40.730469 10.667969 37.730469 12.109375 C 35.664062 13.105469 32.636719 15.929688 31.144531 18.253906 C 30.519531 19.226562 29.589844 21.210938 29.082031 22.664062 C 27.820312 26.257812 27.765625 31.800781 28.953125 35.261719 C 29.390625 36.535156 29.699219 37.621094 29.640625 37.679688 C 29.582031 37.738281 28.609375 36.730469 27.480469 35.441406 Z M 27.480469 35.441406 "/></g></svg>